<svg width="36" height="36" viewBox="0 0 36 36" fill="none" xmlns="http://www.w3.org/2000/svg">
<path d="M17.3333 10V28C17.3333 29.44 16.7467 30.76 15.8133 31.72L15.76 31.7734C15.64 31.8934 15.5067 32.0134 15.3867 32.1067C14.9867 32.4534 14.5333 32.72 14.0667 32.9067C13.92 32.9733 13.7733 33.0267 13.6267 33.08C13.1067 33.2534 12.5467 33.3334 12 33.3334C11.64 33.3334 11.28 33.2934 10.9334 33.2267C10.76 33.1867 10.5867 33.1467 10.4133 33.0934C10.2 33.0267 10 32.96 9.80001 32.8667C9.80001 32.8533 9.8 32.8533 9.78667 32.8667C9.41333 32.68 9.05335 32.4667 8.72002 32.2134L8.70667 32.2C8.53334 32.0667 8.37336 31.9334 8.22669 31.7734C8.08002 31.6134 7.93333 31.4534 7.78667 31.28C7.53333 30.9467 7.32001 30.5867 7.13335 30.2134C7.14668 30.2 7.14668 30.2 7.13335 30.2C7.13335 30.2 7.13333 30.1867 7.12 30.1734C7.04 29.9867 6.97333 29.7867 6.90666 29.5867C6.85333 29.4134 6.81332 29.24 6.77332 29.0667C6.70665 28.72 6.66667 28.36 6.66667 28V10C6.66667 8.00002 8.00001 6.66669 10 6.66669H14C16 6.66669 17.3333 8.00002 17.3333 10Z" fill="#DFD8FC"/>
<path d="M33.3333 26V30C33.3333 32 32 33.3334 30 33.3334H12C12.5467 33.3334 13.1067 33.2534 13.6267 33.08C13.7733 33.0267 13.92 32.9733 14.0667 32.9067C14.5333 32.72 14.9867 32.4534 15.3867 32.1067C15.5067 32.0134 15.64 31.8934 15.76 31.7734L15.8133 31.72L24.88 22.6667H30C32 22.6667 33.3333 24 33.3333 26Z" fill="#DFD8FC"/>
<path d="M28.4933 19.0533L24.88 22.6666L15.8133 31.72C16.7466 30.76 17.3333 29.44 17.3333 28V15.12L20.9467 11.5067C22.36 10.0933 24.2533 10.0933 25.6667 11.5067L28.4933 14.3333C29.9067 15.7466 29.9067 17.64 28.4933 19.0533Z" fill="#DFD8FC"/>
<path d="M14.3333 7.00002V25C14.3333 26.44 13.7467 27.76 12.8133 28.72L12.76 28.7734C12.64 28.8934 12.5067 29.0134 12.3867 29.1067C11.9867 29.4534 11.5333 29.72 11.0667 29.9067C10.92 29.9733 10.7733 30.0267 10.6267 30.08C10.1067 30.2534 9.54667 30.3334 9 30.3334C8.64 30.3334 8.28002 30.2934 7.93335 30.2267C7.76002 30.1867 7.58667 30.1467 7.41333 30.0934C7.2 30.0267 7.00001 29.96 6.80001 29.8667C6.80001 29.8533 6.8 29.8533 6.78667 29.8667C6.41333 29.68 6.05335 29.4667 5.72002 29.2134L5.70667 29.2C5.53334 29.0667 5.37336 28.9334 5.22669 28.7734C5.08002 28.6134 4.93333 28.4534 4.78667 28.28C4.53333 27.9467 4.32001 27.5867 4.13335 27.2134C4.14668 27.2 4.14668 27.2 4.13335 27.2C4.13335 27.2 4.13333 27.1867 4.12 27.1734C4.04 26.9867 3.97333 26.7867 3.90666 26.5867C3.85333 26.4134 3.81332 26.24 3.77332 26.0667C3.70665 25.72 3.66667 25.36 3.66667 25V7.00002C3.66667 5.00002 5.00001 3.66669 7 3.66669H11C13 3.66669 14.3333 5.00002 14.3333 7.00002Z" stroke="#5E3BEE" stroke-width="1.5" stroke-linecap="round" stroke-linejoin="round"/>
<path d="M30.3333 23V27C30.3333 29 29 30.3334 27 30.3334H9C9.54667 30.3334 10.1067 30.2534 10.6267 30.08C10.7733 30.0267 10.92 29.9733 11.0667 29.9067C11.5333 29.72 11.9867 29.4534 12.3867 29.1067C12.5067 29.0134 12.64 28.8934 12.76 28.7734L12.8133 28.72L21.88 19.6667H27C29 19.6667 30.3333 21 30.3333 23Z" stroke="#5E3BEE" stroke-width="1.5" stroke-linecap="round" stroke-linejoin="round"/>
<path d="M7.41333 30.0933C6.61333 29.8533 5.85336 29.4133 5.22669 28.7733C4.58669 28.1467 4.14666 27.3867 3.90666 26.5867C4.42666 28.2533 5.74667 29.5733 7.41333 30.0933Z" stroke="#5E3BEE" stroke-width="1.5" stroke-linecap="round" stroke-linejoin="round"/>
<path d="M25.4933 16.0533L21.88 19.6666L12.8133 28.72C13.7466 27.76 14.3333 26.44 14.3333 25V12.12L17.9467 8.50666C19.36 7.09332 21.2533 7.09332 22.6667 8.50666L25.4933 11.3333C26.9067 12.7466 26.9067 14.64 25.4933 16.0533Z" stroke="#5E3BEE" stroke-width="1.5" stroke-linecap="round" stroke-linejoin="round"/>
<path d="M9.00001 26.3334C9.73638 26.3334 10.3333 25.7364 10.3333 25C10.3333 24.2636 9.73638 23.6667 9.00001 23.6667C8.26363 23.6667 7.66667 24.2636 7.66667 25C7.66667 25.7364 8.26363 26.3334 9.00001 26.3334Z" stroke="#5E3BEE" stroke-width="1.5" stroke-linecap="round" stroke-linejoin="round"/>
</svg>
