<svg width="36" height="36" viewBox="0 0 36 36" fill="none" xmlns="http://www.w3.org/2000/svg">
<path d="M9.33333 20V15.2533C9.33333 9.35999 13.5067 6.94666 18.6133 9.89333L22.7333 12.2667L26.8533 14.64C31.96 17.5867 31.96 22.4133 26.8533 25.36L22.7333 27.7333L18.6133 30.1067C13.5067 33.0533 9.33333 30.64 9.33333 24.7467V20Z" fill="#FAEDDC"/>
<path d="M6.33333 17V12.2533C6.33333 6.35999 10.5067 3.94666 15.6133 6.89333L19.7333 9.26666L23.8533 11.64C28.96 14.5867 28.96 19.4133 23.8533 22.36L19.7333 24.7333L15.6133 27.1067C10.5067 30.0533 6.33333 27.64 6.33333 21.7467V17Z" stroke="#B59B79" stroke-width="1.5" stroke-miterlimit="10" stroke-linecap="round" stroke-linejoin="round"/>
</svg>
