<svg width="36" height="36" viewBox="0 0 36 36" fill="none" xmlns="http://www.w3.org/2000/svg">
<path d="M12.5867 6.66666H27.4C32.1467 6.66666 33.3334 7.85332 33.3334 12.5867V21.0267C33.3334 25.7733 32.1467 26.9467 27.4134 26.9467H12.5867C7.85335 26.96 6.66669 25.7733 6.66669 21.04V12.5867C6.66669 7.85332 7.85335 6.66666 12.5867 6.66666Z" fill="#D9F5FE"/>
<path d="M9.58669 3.66666H24.4C29.1467 3.66666 30.3334 4.85332 30.3334 9.58666V18.0267C30.3334 22.7733 29.1467 23.9467 24.4134 23.9467H9.58669C4.85335 23.96 3.66669 22.7733 3.66669 18.04V9.58666C3.66669 4.85332 4.85335 3.66666 9.58669 3.66666Z" stroke="#74D1EF" stroke-width="1.5" stroke-linecap="round" stroke-linejoin="round"/>
<path d="M17 23.96V30.3333" stroke="#74D1EF" stroke-width="1.5" stroke-linecap="round" stroke-linejoin="round"/>
<path d="M3.66669 18.3333H30.3334" stroke="#74D1EF" stroke-width="1.5" stroke-linecap="round" stroke-linejoin="round"/>
<path d="M11 30.3333H23" stroke="#74D1EF" stroke-width="1.5" stroke-linecap="round" stroke-linejoin="round"/>
</svg>
