<svg width="21" height="22" viewBox="0 0 21 22" fill="none" xmlns="http://www.w3.org/2000/svg">
<g clip-path="url(#clip0_11_9)">
<path fill-rule="evenodd" clip-rule="evenodd" d="M19.7949 10.975C19.7949 13.3537 18.873 15.6349 17.232 17.3169C15.5911 18.9988 13.3655 19.9438 11.0449 19.9438C8.72422 19.9438 6.49862 18.9988 4.85768 17.3169C3.21673 15.6349 2.29486 13.3537 2.29486 10.975C2.29486 8.59635 3.21673 6.31511 4.85768 4.63314C6.49862 2.95118 8.72422 2.00626 11.0449 2.00626C13.3655 2.00626 15.5911 2.95118 17.232 4.63314C18.873 6.31511 19.7949 8.59635 19.7949 10.975ZM1.04486 10.975C1.04486 13.6935 2.09843 16.3006 3.97379 18.2229C5.84916 20.1451 8.3927 21.225 11.0449 21.225C13.697 21.225 16.2406 20.1451 18.1159 18.2229C19.9913 16.3006 21.0449 13.6935 21.0449 10.975C21.0449 8.25654 19.9913 5.64941 18.1159 3.72716C16.2406 1.80491 13.697 0.725006 11.0449 0.725006C8.3927 0.725006 5.84916 1.80491 3.97379 3.72716C2.09843 5.64941 1.04486 8.25654 1.04486 10.975ZM15.4199 10.3344C15.5856 10.3344 15.7446 10.4019 15.8618 10.522C15.979 10.6422 16.0449 10.8051 16.0449 10.975C16.0449 11.1449 15.979 11.3079 15.8618 11.428C15.7446 11.5481 15.5856 11.6156 15.4199 11.6156H8.17861L10.8624 14.3652C10.9205 14.4248 10.9666 14.4955 10.998 14.5733C11.0295 14.6511 11.0457 14.7345 11.0457 14.8188C11.0457 14.903 11.0295 14.9864 10.998 15.0642C10.9666 15.142 10.9205 15.2128 10.8624 15.2723C10.8043 15.3319 10.7353 15.3791 10.6593 15.4114C10.5834 15.4436 10.502 15.4602 10.4199 15.4602C10.3377 15.4602 10.2563 15.4436 10.1804 15.4114C10.1045 15.3791 10.0355 15.3319 9.97736 15.2723L6.22736 11.4286C6.16916 11.3691 6.12298 11.2984 6.09147 11.2205C6.05996 11.1427 6.04374 11.0593 6.04374 10.975C6.04374 10.8907 6.05996 10.8073 6.09147 10.7295C6.12298 10.6516 6.16916 10.581 6.22736 10.5214L9.97736 6.67769C10.0355 6.61813 10.1045 6.57088 10.1804 6.53865C10.2563 6.50641 10.3377 6.48982 10.4199 6.48982C10.502 6.48982 10.5834 6.50641 10.6593 6.53865C10.7353 6.57088 10.8043 6.61813 10.8624 6.67769C10.9205 6.73726 10.9666 6.80797 10.998 6.88579C11.0295 6.96361 11.0457 7.04702 11.0457 7.13126C11.0457 7.21549 11.0295 7.2989 10.998 7.37672C10.9666 7.45455 10.9205 7.52526 10.8624 7.58482L8.17861 10.3344H15.4199Z" fill="black"/>
</g>
<defs>
<clipPath id="clip0_11_9">
<rect width="20" height="20.5" fill="white" transform="matrix(-1 0 0 1 20.7673 0.725006)"/>
</clipPath>
</defs>
</svg>
