<svg width="11" height="11" viewBox="0 0 11 11" fill="none" xmlns="http://www.w3.org/2000/svg">
<path d="M10.5584 0.616345C10.612 0.669996 10.6481 0.738643 10.6619 0.813225C10.6757 0.887808 10.6665 0.964819 10.6356 1.03409L6.39289 10.5801C6.36325 10.6469 6.31475 10.7035 6.25336 10.7431C6.19196 10.7827 6.12034 10.8035 6.0473 10.8029C5.97425 10.8023 5.90296 10.7805 5.84217 10.74C5.78139 10.6994 5.73376 10.6421 5.70514 10.5748L4.17439 7.00035L0.599143 5.46885C0.532186 5.44005 0.475074 5.39236 0.434791 5.33161C0.394508 5.27087 0.3728 5.1997 0.372323 5.12682C0.371845 5.05393 0.392619 4.98248 0.432103 4.92122C0.471587 4.85995 0.528069 4.81152 0.594643 4.78184L10.1406 0.539095C10.2098 0.508381 10.2867 0.499322 10.3611 0.51311C10.4355 0.526898 10.5041 0.562887 10.5576 0.616345H10.5584ZM1.68439 5.11784L4.60714 6.37034C4.69553 6.40844 4.76588 6.47906 4.80364 6.56759L6.05614 9.49035L9.55414 1.61984L1.68439 5.11784Z" fill="black"/>
</svg>
