<svg width="13" height="13" viewBox="0 0 13 13" fill="none" xmlns="http://www.w3.org/2000/svg">
<g clip-path="url(#clip0_1_76)">
<path fill-rule="evenodd" clip-rule="evenodd" d="M3.32189 9.37984C3.35682 9.33327 3.40211 9.29547 3.45418 9.26943C3.50625 9.2434 3.56367 9.22984 3.62189 9.22984H5.49689C5.59634 9.22984 5.69173 9.26935 5.76205 9.33968C5.83238 9.41 5.87189 9.50539 5.87189 9.60484C5.87189 9.7043 5.83238 9.79968 5.76205 9.87001C5.69173 9.94033 5.59634 9.97984 5.49689 9.97984H3.80939L2.12189 12.2298H11.8719L10.1844 9.97984H8.49689C8.39743 9.97984 8.30205 9.94033 8.23172 9.87001C8.1614 9.79968 8.12189 9.7043 8.12189 9.60484C8.12189 9.50539 8.1614 9.41 8.23172 9.33968C8.30205 9.26935 8.39743 9.22984 8.49689 9.22984H10.3719C10.4301 9.22984 10.4875 9.2434 10.5396 9.26943C10.5917 9.29547 10.637 9.33327 10.6719 9.37984L12.9219 12.3798C12.9637 12.4356 12.9891 12.5018 12.9954 12.5712C13.0016 12.6405 12.9884 12.7103 12.9573 12.7725C12.9262 12.8348 12.8783 12.8872 12.819 12.9238C12.7598 12.9605 12.6915 12.9798 12.6219 12.9798H1.37189C1.30225 12.9798 1.23398 12.9605 1.17474 12.9238C1.1155 12.8872 1.06762 12.8348 1.03648 12.7725C1.00533 12.7103 0.992148 12.6405 0.998403 12.5712C1.00466 12.5018 1.0301 12.4356 1.07189 12.3798L3.32189 9.37984Z" fill="black"/>
<path fill-rule="evenodd" clip-rule="evenodd" d="M6.99689 1.72984C6.70141 1.72984 6.40883 1.78804 6.13585 1.90111C5.86287 2.01419 5.61483 2.17992 5.4059 2.38885C5.19697 2.59779 5.03123 2.84582 4.91816 3.11881C4.80509 3.39179 4.74689 3.68437 4.74689 3.97984C4.74689 4.27532 4.80509 4.5679 4.91816 4.84088C5.03123 5.11386 5.19697 5.3619 5.4059 5.57083C5.61483 5.77977 5.86287 5.9455 6.13585 6.05857C6.40883 6.17165 6.70141 6.22984 6.99689 6.22984C7.59362 6.22984 8.16592 5.99279 8.58788 5.57083C9.00984 5.14888 9.24689 4.57658 9.24689 3.97984C9.24689 3.38311 9.00984 2.81081 8.58788 2.38885C8.16592 1.9669 7.59362 1.72984 6.99689 1.72984ZM3.99689 3.97984C3.99694 3.40251 4.16358 2.83746 4.47681 2.35249C4.79004 1.86751 5.23655 1.48322 5.76277 1.24572C6.28898 1.00822 6.87255 0.927608 7.44345 1.01355C8.01435 1.09948 8.54833 1.34833 8.98131 1.73022C9.41429 2.1121 9.72788 2.61082 9.88445 3.16651C10.041 3.7222 10.0339 4.31127 9.86402 4.86303C9.69411 5.4148 9.3686 5.90581 8.92655 6.27716C8.4845 6.64851 7.94469 6.88443 7.37189 6.95659V11.1048C7.37189 11.2043 7.33238 11.2997 7.26205 11.37C7.19173 11.4403 7.09634 11.4798 6.99689 11.4798C6.89743 11.4798 6.80205 11.4403 6.73172 11.37C6.6614 11.2997 6.62189 11.2043 6.62189 11.1048V6.95734C5.89661 6.86597 5.22965 6.51292 4.7463 5.96452C4.26294 5.41612 3.99645 4.7101 3.99689 3.97909V3.97984Z" fill="black"/>
</g>
<defs>
<clipPath id="clip0_1_76">
<rect width="12" height="12" fill="white" transform="translate(0.996887 0.979843)"/>
</clipPath>
</defs>
</svg>
