<svg width="39" height="39" viewBox="0 0 39 39" fill="none" xmlns="http://www.w3.org/2000/svg">
<g filter="url(#filter0_d_95_5)">
<path d="M34.0298 15.321C34.0298 19.2992 32.4495 23.1145 29.6364 25.9276C26.8234 28.7406 23.0081 30.321 19.0298 30.321C15.0516 30.321 11.2363 28.7406 8.42324 25.9276C5.6102 23.1145 4.02985 19.2992 4.02985 15.321C4.02985 11.3427 5.6102 7.52743 8.42324 4.71438C11.2363 1.90134 15.0516 0.320984 19.0298 0.320984C23.0081 0.320984 26.8234 1.90134 29.6364 4.71438C32.4495 7.52743 34.0298 11.3427 34.0298 15.321ZM16.7611 9.87036C16.6209 9.77055 16.456 9.71125 16.2843 9.69896C16.1127 9.68666 15.941 9.72185 15.788 9.80066C15.635 9.87947 15.5067 9.99887 15.417 10.1458C15.3274 10.2927 15.28 10.4614 15.2798 10.6335V20.0085C15.28 20.1806 15.3274 20.3493 15.417 20.4962C15.5067 20.6431 15.635 20.7625 15.788 20.8413C15.941 20.9201 16.1127 20.9553 16.2843 20.943C16.456 20.9307 16.6209 20.8714 16.7611 20.7716L23.3236 16.0841C23.4451 15.9974 23.5442 15.8829 23.6125 15.7502C23.6809 15.6174 23.7165 15.4703 23.7165 15.321C23.7165 15.1717 23.6809 15.0245 23.6125 14.8918C23.5442 14.7591 23.4451 14.6446 23.3236 14.5579L16.7611 9.87036Z" fill="#FF6B00"/>
<path d="M17.0517 9.46349L17.0511 9.46305C16.8361 9.31001 16.5832 9.21908 16.32 9.20023C16.0569 9.18138 15.7936 9.23534 15.559 9.35618L15.788 9.80066L15.559 9.35618C15.3244 9.47702 15.1277 9.6601 14.9902 9.88534C14.8528 10.1106 14.78 10.3693 14.7798 10.6332V10.6335V20.0085V20.0088C14.78 20.2726 14.8528 20.5314 14.9902 20.7566C15.1277 20.9819 15.3244 21.1649 15.559 21.2858C15.7936 21.4066 16.0569 21.4606 16.32 21.4417C16.5832 21.4229 16.8362 21.332 17.0511 21.1789L17.0517 21.1785L23.614 16.4911C23.8004 16.3581 23.9523 16.1826 24.0571 15.9791C24.1619 15.7755 24.2165 15.5499 24.2165 15.321C24.2165 15.0921 24.1619 14.8664 24.0571 14.6629C23.9523 14.4595 23.8005 14.284 23.6142 14.151C23.6142 14.1509 23.6141 14.1509 23.614 14.1509L17.0517 9.46349ZM33.5298 15.321C33.5298 19.1666 32.0022 22.8548 29.2829 25.574C26.5636 28.2933 22.8755 29.821 19.0298 29.821C15.1842 29.821 11.4961 28.2933 8.7768 25.574C6.05752 22.8548 4.52985 19.1666 4.52985 15.321C4.52985 11.4753 6.05752 7.78721 8.7768 5.06794C11.4961 2.34866 15.1842 0.820984 19.0298 0.820984C22.8755 0.820984 26.5636 2.34866 29.2829 5.06794C32.0022 7.78721 33.5298 11.4753 33.5298 15.321Z" stroke="black"/>
</g>
<defs>
<filter id="filter0_d_95_5" x="0.0298462" y="0.320984" width="38" height="38" filterUnits="userSpaceOnUse" color-interpolation-filters="sRGB">
<feFlood flood-opacity="0" result="BackgroundImageFix"/>
<feColorMatrix in="SourceAlpha" type="matrix" values="0 0 0 0 0 0 0 0 0 0 0 0 0 0 0 0 0 0 127 0" result="hardAlpha"/>
<feOffset dy="4"/>
<feGaussianBlur stdDeviation="2"/>
<feComposite in2="hardAlpha" operator="out"/>
<feColorMatrix type="matrix" values="0 0 0 0 0 0 0 0 0 0 0 0 0 0 0 0 0 0 0.25 0"/>
<feBlend mode="normal" in2="BackgroundImageFix" result="effect1_dropShadow_95_5"/>
<feBlend mode="normal" in="SourceGraphic" in2="effect1_dropShadow_95_5" result="shape"/>
</filter>
</defs>
</svg>
