<svg width="43" height="43" viewBox="0 0 43 43" fill="none" xmlns="http://www.w3.org/2000/svg">
<g clip-path="url(#clip0_95_13)">
<path d="M31.2723 22.0004C30.1061 23.1667 28.5243 23.8219 26.875 23.8219C25.2257 23.8219 23.6439 23.1667 22.4777 22.0004C21.3114 20.8342 20.6562 19.2524 20.6562 17.6031C20.6562 15.9538 21.3114 14.372 22.4777 13.2058C23.6439 12.0396 25.2257 11.3844 26.875 11.3844C28.5243 11.3844 30.1061 12.0396 31.2723 13.2058C32.4386 14.372 33.0938 15.9538 33.0938 17.6031C33.0938 19.2524 32.4386 20.8342 31.2723 22.0004Z" fill="black" stroke="black"/>
<g filter="url(#filter0_d_95_13)">
<path d="M5.375 2.6875C3.94946 2.6875 2.58231 3.25379 1.5743 4.2618C0.566293 5.26981 0 6.63696 0 8.0625L0 32.25C0 33.6755 0.566293 35.0427 1.5743 36.0507C2.58231 37.0587 3.94946 37.625 5.375 37.625H37.625C39.0505 37.625 40.4177 37.0587 41.4257 36.0507C42.4337 35.0427 43 33.6755 43 32.25V8.0625C43 6.63696 42.4337 5.26981 41.4257 4.2618C40.4177 3.25379 39.0505 2.6875 37.625 2.6875H5.375ZM2.6875 8.0625C2.6875 7.34973 2.97065 6.66615 3.47465 6.16215C3.97865 5.65815 4.66223 5.375 5.375 5.375H10.75V10.75H2.6875V8.0625ZM13.4375 34.9375V5.375H37.625C38.3378 5.375 39.0213 5.65815 39.5253 6.16215C40.0294 6.66615 40.3125 7.34973 40.3125 8.0625V32.25C40.3125 33.0159 39.99 33.7093 39.4794 34.1984C38.0281 30.8901 34.4591 26.875 26.875 26.875C18.7131 26.875 15.1978 31.5244 13.9804 34.9375H13.4375ZM2.6875 29.5625H10.75V34.9375H5.375C4.66223 34.9375 3.97865 34.6544 3.47465 34.1504C2.97065 33.6463 2.6875 32.9628 2.6875 32.25V29.5625ZM10.75 26.875H2.6875V21.5H10.75V26.875ZM10.75 18.8125H2.6875V13.4375H10.75V18.8125Z" fill="black"/>
</g>
</g>
<defs>
<filter id="filter0_d_95_13" x="-4" y="2.6875" width="51" height="42.9375" filterUnits="userSpaceOnUse" color-interpolation-filters="sRGB">
<feFlood flood-opacity="0" result="BackgroundImageFix"/>
<feColorMatrix in="SourceAlpha" type="matrix" values="0 0 0 0 0 0 0 0 0 0 0 0 0 0 0 0 0 0 127 0" result="hardAlpha"/>
<feOffset dy="4"/>
<feGaussianBlur stdDeviation="2"/>
<feComposite in2="hardAlpha" operator="out"/>
<feColorMatrix type="matrix" values="0 0 0 0 0 0 0 0 0 0 0 0 0 0 0 0 0 0 0.25 0"/>
<feBlend mode="normal" in2="BackgroundImageFix" result="effect1_dropShadow_95_13"/>
<feBlend mode="normal" in="SourceGraphic" in2="effect1_dropShadow_95_13" result="shape"/>
</filter>
<clipPath id="clip0_95_13">
<rect width="43" height="43" fill="white"/>
</clipPath>
</defs>
</svg>
