<svg width="47" height="44" viewBox="0 0 47 44" fill="none" xmlns="http://www.w3.org/2000/svg">
<g filter="url(#filter0_d_95_21)">
<path d="M12.8009 35.8632C11.8601 36.3384 10.7924 35.5056 10.9826 34.4425L13.0057 23.0908L4.4184 15.0367C3.61647 14.2831 4.03328 12.9056 5.10821 12.7568L17.0471 11.0864L22.3705 0.701977C22.8507 -0.233992 24.1499 -0.233992 24.6301 0.701977L29.9536 11.0864L41.8924 12.7568C42.9674 12.9056 43.3842 14.2831 42.5798 15.0367L33.9949 23.0908L36.0181 34.4425C36.2082 35.5056 35.1406 36.3384 34.1997 35.8632L23.4967 30.449L12.7985 35.8632H12.8009Z" fill="#FAFF00"/>
<path d="M12.573 35.4182L12.5727 35.4171L23.2709 30.0029L23.4966 29.8886L23.7224 30.0028L34.4251 35.4169L12.573 35.4182ZM12.573 35.4182C12.0309 35.6894 11.3514 35.2206 11.4748 34.5305L11.4748 34.5302L13.4979 23.1786L13.5455 22.9116L13.3477 22.7261L4.7608 14.6723C4.76075 14.6723 4.7607 14.6722 4.76066 14.6722C4.24868 14.1909 4.5404 13.3401 5.17677 13.2521L5.17749 13.252L17.1163 11.5816L17.3735 11.5456L17.492 11.3145L22.8154 0.930211C23.1097 0.356596 23.8909 0.356596 24.1852 0.930211L29.5086 11.3145L29.6271 11.5456L29.8843 11.5816L41.8231 13.252L41.8239 13.2521C42.4601 13.3401 42.7518 14.1905 42.238 14.6718L42.2377 14.6721L33.6528 22.7262L33.4551 22.9117L33.5027 23.1786L35.5258 34.5302L35.5259 34.5305C35.6495 35.2215 34.9679 35.6907 34.4254 35.417L12.573 35.4182Z" stroke="black"/>
</g>
<defs>
<filter id="filter0_d_95_21" x="0" y="0" width="47" height="44" filterUnits="userSpaceOnUse" color-interpolation-filters="sRGB">
<feFlood flood-opacity="0" result="BackgroundImageFix"/>
<feColorMatrix in="SourceAlpha" type="matrix" values="0 0 0 0 0 0 0 0 0 0 0 0 0 0 0 0 0 0 127 0" result="hardAlpha"/>
<feOffset dy="4"/>
<feGaussianBlur stdDeviation="2"/>
<feComposite in2="hardAlpha" operator="out"/>
<feColorMatrix type="matrix" values="0 0 0 0 0 0 0 0 0 0 0 0 0 0 0 0 0 0 0.25 0"/>
<feBlend mode="normal" in2="BackgroundImageFix" result="effect1_dropShadow_95_21"/>
<feBlend mode="normal" in="SourceGraphic" in2="effect1_dropShadow_95_21" result="shape"/>
</filter>
</defs>
</svg>
