<svg width="13" height="13" viewBox="0 0 13 13" fill="none" xmlns="http://www.w3.org/2000/svg">
<path fill-rule="evenodd" clip-rule="evenodd" d="M2.23139 5.96434C2.26622 5.92942 2.3076 5.90171 2.35316 5.88281C2.39872 5.8639 2.44756 5.85417 2.49689 5.85417C2.54621 5.85417 2.59505 5.8639 2.64061 5.88281C2.68617 5.90171 2.72755 5.92942 2.76239 5.96434L6.99689 10.1996L11.2314 5.96434C11.3018 5.89393 11.3973 5.85437 11.4969 5.85437C11.5965 5.85437 11.692 5.89393 11.7624 5.96434C11.8328 6.03476 11.8724 6.13026 11.8724 6.22984C11.8724 6.32942 11.8328 6.42493 11.7624 6.49534L7.26239 10.9953C7.22755 11.0303 7.18617 11.058 7.14061 11.0769C7.09505 11.0958 7.04621 11.1055 6.99689 11.1055C6.94756 11.1055 6.89872 11.0958 6.85316 11.0769C6.8076 11.058 6.76622 11.0303 6.73139 10.9953L2.23139 6.49534C2.19646 6.46051 2.16876 6.41913 2.14985 6.37357C2.13095 6.32801 2.12122 6.27917 2.12122 6.22984C2.12122 6.18052 2.13095 6.13168 2.14985 6.08612C2.16876 6.04056 2.19646 5.99918 2.23139 5.96434Z" fill="black"/>
<path fill-rule="evenodd" clip-rule="evenodd" d="M2.23139 2.96434C2.26622 2.92942 2.3076 2.90171 2.35316 2.88281C2.39872 2.8639 2.44756 2.85417 2.49689 2.85417C2.54621 2.85417 2.59505 2.8639 2.64061 2.88281C2.68617 2.90171 2.72755 2.92942 2.76239 2.96434L6.99689 7.19959L11.2314 2.96434C11.2663 2.92948 11.3076 2.90182 11.3532 2.88295C11.3988 2.86408 11.4476 2.85437 11.4969 2.85437C11.5462 2.85437 11.595 2.86408 11.6406 2.88295C11.6861 2.90182 11.7275 2.92948 11.7624 2.96434C11.7973 2.99921 11.8249 3.0406 11.8438 3.08615C11.8626 3.13171 11.8724 3.18053 11.8724 3.22984C11.8724 3.27915 11.8626 3.32798 11.8438 3.37353C11.8249 3.41908 11.7973 3.46048 11.7624 3.49534L7.26239 7.99534C7.22755 8.03026 7.18617 8.05797 7.14061 8.07688C7.09505 8.09578 7.04621 8.10551 6.99689 8.10551C6.94756 8.10551 6.89872 8.09578 6.85316 8.07688C6.8076 8.05797 6.76622 8.03026 6.73139 7.99534L2.23139 3.49534C2.19646 3.46051 2.16876 3.41913 2.14985 3.37357C2.13095 3.32801 2.12122 3.27917 2.12122 3.22984C2.12122 3.18052 2.13095 3.13168 2.14985 3.08612C2.16876 3.04056 2.19646 2.99918 2.23139 2.96434Z" fill="black"/>
</svg>
