<svg width="31" height="31" viewBox="0 0 31 31" fill="none" xmlns="http://www.w3.org/2000/svg">
<path d="M27.5963 14.5111C26.7887 13.1104 22.347 6.08203 14.8013 6.30916C7.82336 6.48582 3.78549 12.6183 2.6877 14.5111C2.57695 14.7029 2.51865 14.9205 2.51865 15.142C2.51865 15.3635 2.57695 15.5811 2.6877 15.7729C3.48265 17.1483 7.73503 23.9748 15.1672 23.9748H15.4827C22.4606 23.7982 26.5111 17.6657 27.5963 15.7729C27.707 15.5811 27.7653 15.3635 27.7653 15.142C27.7653 14.9205 27.707 14.7029 27.5963 14.5111V14.5111ZM15.4196 21.4512C9.98109 21.5773 6.43534 16.9212 5.32493 15.142C6.58676 13.1104 9.88014 8.95901 14.9275 8.83283C20.3407 8.69403 23.8991 13.3628 25.0221 15.142C23.7224 17.1735 20.4669 21.325 15.4196 21.4512V21.4512Z" fill="#231F20"/>
<path d="M15.142 10.7256C14.2685 10.7256 13.4146 10.9846 12.6883 11.4699C11.9621 11.9552 11.396 12.6449 11.0617 13.4519C10.7275 14.2589 10.64 15.1469 10.8104 16.0036C10.9808 16.8603 11.4014 17.6472 12.0191 18.2649C12.6367 18.8825 13.4237 19.3031 14.2804 19.4735C15.1371 19.6439 16.0251 19.5565 16.8321 19.2222C17.6391 18.888 18.3288 18.3219 18.8141 17.5956C19.2994 16.8693 19.5584 16.0155 19.5584 15.142C19.5584 13.9707 19.0931 12.8474 18.2648 12.0191C17.4366 11.1909 16.3133 10.7256 15.142 10.7256V10.7256ZM15.142 17.0347C14.7676 17.0347 14.4017 16.9237 14.0904 16.7158C13.7792 16.5078 13.5366 16.2122 13.3933 15.8663C13.25 15.5205 13.2126 15.1399 13.2856 14.7727C13.3586 14.4056 13.5389 14.0683 13.8036 13.8036C14.0683 13.5389 14.4056 13.3586 14.7727 13.2856C15.1399 13.2126 15.5204 13.2501 15.8663 13.3933C16.2121 13.5366 16.5078 13.7792 16.7157 14.0904C16.9237 14.4017 17.0347 14.7676 17.0347 15.142C17.0347 15.644 16.8353 16.1254 16.4803 16.4804C16.1254 16.8353 15.644 17.0347 15.142 17.0347Z" fill="#231F20"/>
<line x1="4.26006" y1="27.3273" x2="24.2601" y2="5.32733" stroke="black" stroke-width="2"/>
</svg>
