<svg width="18" height="24" viewBox="0 0 18 24" fill="none" xmlns="http://www.w3.org/2000/svg">
<path d="M9.14202 10.8802C10.1403 10.8802 11.1161 10.5841 11.9462 10.0295C12.7762 9.47492 13.4231 8.68664 13.8051 7.76436C14.1872 6.84208 14.2871 5.82723 14.0924 4.84815C13.8976 3.86906 13.4169 2.96971 12.711 2.26383C12.0051 1.55795 11.1058 1.07724 10.1267 0.882485C9.14762 0.687733 8.13277 0.787686 7.2105 1.16971C6.28822 1.55173 5.49993 2.19866 4.94532 3.02868C4.39072 3.85871 4.0947 4.83456 4.0947 5.83283C4.0947 7.17147 4.62647 8.45527 5.57302 9.40183C6.51958 10.3484 7.80339 10.8802 9.14202 10.8802Z" fill="#231F20"/>
<path d="M16.713 23.4985C17.0477 23.4985 17.3686 23.3655 17.6053 23.1289C17.8419 22.8923 17.9749 22.5713 17.9749 22.2366C17.9749 19.894 17.0443 17.6474 15.3878 15.9909C13.7313 14.3344 11.4846 13.4038 9.14203 13.4038C6.79942 13.4038 4.55276 14.3344 2.89628 15.9909C1.2398 17.6474 0.309204 19.894 0.309204 22.2366C0.309204 22.5713 0.442147 22.8923 0.678786 23.1289C0.915426 23.3655 1.23638 23.4985 1.57104 23.4985H16.713Z" fill="#231F20"/>
</svg>
